<svg width="24" height="24" viewBox="0 0 24 24" fill="none" xmlns="http://www.w3.org/2000/svg">
<path fill-rule="evenodd" clip-rule="evenodd" d="M11.9942 2.75C10.7718 4.92731 11.2028 6.10046 11.5807 6.45202C11.7842 6.64129 12.0539 6.70869 12.3463 6.6237C12.6449 6.53692 13.0279 6.26711 13.3292 5.66459C13.5144 5.29411 13.9649 5.14394 14.3354 5.32918C14.7059 5.51442 14.8561 5.96493 14.6708 6.33541C14.2221 7.23289 13.5426 7.83808 12.7649 8.0641C11.9811 8.2919 11.1607 8.10991 10.5591 7.55036C9.55526 6.61662 9.37304 4.93687 10.241 2.91695C5.97386 3.73831 2.75 7.49286 2.75 12C2.75 17.1086 6.89137 21.25 12 21.25C17.1086 21.25 21.25 17.1086 21.25 12C21.25 6.89137 17.1086 2.75 12 2.75C11.9981 2.75 11.9961 2.75 11.9942 2.75ZM11.5271 1.26023C11.6839 1.25343 11.8416 1.25 12 1.25C17.9371 1.25 22.75 6.06294 22.75 12C22.75 17.9371 17.9371 22.75 12 22.75C6.06294 22.75 1.25 17.9371 1.25 12C1.25 6.24296 5.77515 1.54327 11.4631 1.26319L11.5271 1.26023ZM8 11.75C8.13807 11.75 8.25 11.6381 8.25 11.5C8.25 11.3619 8.13807 11.25 8 11.25C7.86193 11.25 7.75 11.3619 7.75 11.5C7.75 11.6381 7.86193 11.75 8 11.75ZM6.75 11.5C6.75 10.8096 7.30964 10.25 8 10.25C8.69036 10.25 9.25 10.8096 9.25 11.5C9.25 12.1904 8.69036 12.75 8 12.75C7.30964 12.75 6.75 12.1904 6.75 11.5ZM16 11.75C16.1381 11.75 16.25 11.6381 16.25 11.5C16.25 11.3619 16.1381 11.25 16 11.25C15.8619 11.25 15.75 11.3619 15.75 11.5C15.75 11.6381 15.8619 11.75 16 11.75ZM14.75 11.5C14.75 10.8096 15.3096 10.25 16 10.25C16.6904 10.25 17.25 10.8096 17.25 11.5C17.25 12.1904 16.6904 12.75 16 12.75C15.3096 12.75 14.75 12.1904 14.75 11.5ZM8.20348 15.416C8.38795 15.0451 8.83814 14.894 9.20901 15.0785C10.3081 15.6252 11.1424 15.8598 11.9198 15.8594C12.694 15.8589 13.4949 15.6254 14.5274 15.0854C14.8945 14.8934 15.3476 15.0354 15.5396 15.4024C15.7316 15.7695 15.5896 16.2226 15.2226 16.4146C14.068 17.0184 13.0228 17.3588 11.9207 17.3594C10.8218 17.36 9.74961 17.0227 8.54099 16.4215C8.17012 16.237 8.01901 15.7869 8.20348 15.416Z" fill="#111322"/>
</svg>
