<svg width="24" height="24" viewBox="0 0 24 24" fill="none" xmlns="http://www.w3.org/2000/svg">
<path fill-rule="evenodd" clip-rule="evenodd" d="M4.25 4C4.25 2.48122 5.48122 1.25 7 1.25H16.6364C18.1551 1.25 19.3864 2.48122 19.3864 4V20C19.3864 21.5188 18.1551 22.75 16.6364 22.75H7C5.48122 22.75 4.25 21.5188 4.25 20V4ZM7 2.75C6.30964 2.75 5.75 3.30964 5.75 4V8.97727H17.8864V4C17.8864 3.30964 17.3267 2.75 16.6364 2.75H7ZM17.8864 10.4773H5.75V20C5.75 20.6904 6.30964 21.25 7 21.25H16.6364C17.3267 21.25 17.8864 20.6904 17.8864 20V10.4773ZM7.72727 4.25C8.14149 4.25 8.47727 4.58579 8.47727 5V7C8.47727 7.41421 8.14149 7.75 7.72727 7.75C7.31306 7.75 6.97727 7.41421 6.97727 7V5C6.97727 4.58579 7.31306 4.25 7.72727 4.25ZM7.72727 11.75C8.14149 11.75 8.47727 12.0858 8.47727 12.5V17C8.47727 17.4142 8.14149 17.75 7.72727 17.75C7.31306 17.75 6.97727 17.4142 6.97727 17V12.5C6.97727 12.0858 7.31306 11.75 7.72727 11.75Z" fill="#111322"/>
</svg>
