<svg width="24" height="24" viewBox="0 0 24 24" fill="none" xmlns="http://www.w3.org/2000/svg">
<path fill-rule="evenodd" clip-rule="evenodd" d="M12 0.857561C5.8358 0.857561 0.847553 5.85111 0.847553 12C0.847553 18.1489 5.8358 23.1424 12 23.1424C18.1642 23.1424 23.1524 18.1489 23.1524 12C23.1524 5.85111 18.1642 0.857561 12 0.857561ZM0 12C0 5.36768 5.37746 0 12 0C18.6225 0 24 5.36768 24 12C24 18.6323 18.6225 24 12 24C5.37746 24 0 18.6323 0 12Z" fill="#DC2626"/>
<path d="M3.9525 15.0307L3.95251 8.83242H9.85358L12.1715 11.1943L14.3945 8.83242H20.3865V15.0307H14.6383V14.0579L12.1689 16.5397L9.65433 14.0337L9.6456 15.0307H3.9525Z" fill="#DC2626"/>
</svg>
