<svg width="24" height="24" viewBox="0 0 24 24" fill="none" xmlns="http://www.w3.org/2000/svg">
<path fill-rule="evenodd" clip-rule="evenodd" d="M9.25002 3C9.25002 2.58579 9.58581 2.25 10 2.25H14C14.4142 2.25 14.75 2.58579 14.75 3C14.75 3.41421 14.4142 3.75 14 3.75H12.75V7.81615C13.7436 7.99354 14.6183 8.51719 15.2456 9.25926L18.7653 7.22586L18.1407 6.14534C17.9334 5.78673 18.0561 5.32797 18.4147 5.12068C18.7733 4.91339 19.2321 5.03606 19.4394 5.39467L20.4388 7.12373C20.439 7.12409 20.4392 7.12445 20.4394 7.12481C20.4396 7.12508 20.4393 7.12455 20.4394 7.12481L21.4394 8.85466C21.6466 9.21327 21.524 9.67203 21.1654 9.87932C20.8067 10.0866 20.348 9.96394 20.1407 9.60533L19.5159 8.52451L15.9977 10.5571C16.1611 11.0072 16.25 11.4911 16.25 12C16.25 12.5089 16.1611 12.9928 15.9977 13.4429L19.5159 15.4755L20.1407 14.3947C20.348 14.0361 20.8067 13.9134 21.1654 14.1207C21.524 14.328 21.6466 14.7867 21.4394 15.1453L20.4399 16.8744C20.4397 16.8747 20.44 16.8742 20.4399 16.8744C20.4397 16.8748 20.439 16.8759 20.4388 16.8762L19.4394 18.6053C19.2321 18.9639 18.7733 19.0866 18.4147 18.8793C18.0561 18.672 17.9334 18.2133 18.1407 17.8547L18.7653 16.7741L15.2456 14.7407C14.6183 15.4828 13.7436 16.0065 12.75 16.1839V20.25H14C14.4142 20.25 14.75 20.5858 14.75 21C14.75 21.4142 14.4142 21.75 14 21.75H10C9.58581 21.75 9.25002 21.4142 9.25002 21C9.25002 20.5858 9.58581 20.25 10 20.25H11.25V16.1839C10.2564 16.0065 9.38171 15.4828 8.7544 14.7407L5.23477 16.7741L5.85935 17.8547C6.06664 18.2133 5.94397 18.672 5.58536 18.8793C5.22675 19.0866 4.76799 18.9639 4.5607 18.6053L2.5607 15.1453C2.35341 14.7867 2.47608 14.328 2.83469 14.1207C3.1933 13.9134 3.65206 14.0361 3.85935 14.3947L4.4841 15.4755L8.00237 13.4429C7.83899 12.9928 7.75002 12.5089 7.75002 12C7.75002 11.4911 7.83899 11.0072 8.00237 10.5571L4.4841 8.52451L3.85935 9.60533C3.65206 9.96394 3.1933 10.0866 2.83469 9.87932C2.47608 9.67203 2.35341 9.21327 2.5607 8.85466L3.56055 7.12492L4.5607 5.39467C4.76799 5.03606 5.22675 4.91339 5.58536 5.12068C5.94397 5.32797 6.06664 5.78673 5.85935 6.14534L5.23477 7.22586L8.7544 9.25926C9.38171 8.51719 10.2564 7.99354 11.25 7.81615V3.75H10C9.58581 3.75 9.25002 3.41421 9.25002 3ZM9.61911 10.6257C9.38242 11.0364 9.25002 11.4974 9.25002 12C9.25002 12.5025 9.38241 12.9636 9.61908 13.3742C10.1008 14.2027 10.9891 14.75 12 14.75C13.011 14.75 13.8992 14.2027 14.381 13.3742C14.6176 12.9636 14.75 12.5025 14.75 12C14.75 11.4974 14.6176 11.0364 14.3809 10.6258C13.8992 9.79731 13.011 9.25 12 9.25C10.9891 9.25 10.1009 9.79731 9.61911 10.6257Z" fill="#111322"/>
</svg>
