<svg width="24" height="24" viewBox="0 0 24 24" fill="none" xmlns="http://www.w3.org/2000/svg">
<path fill-rule="evenodd" clip-rule="evenodd" d="M14.4036 1.91437C14.4044 1.91491 14.4052 1.91546 14.406 1.916L20.3914 5.84295C21.7028 6.70356 22.2891 8.15003 22.15 9.53434V15C22.15 15.4142 21.8142 15.75 21.4 15.75C20.9858 15.75 20.65 15.4142 20.65 15V12.2428C20.5672 12.3068 20.4811 12.3683 20.3915 12.4271L19.13 13.2547V17.77C19.13 18.5908 18.8174 19.3984 18.3487 20.0494C17.8802 20.7004 17.2141 21.2526 16.4372 21.5115L13.2395 22.5741C12.8625 22.6953 12.412 22.745 11.9963 22.745C11.5812 22.745 11.1313 22.6954 10.7567 22.5728L10.7535 22.5718L7.56351 21.5118C6.78657 21.2528 6.11987 20.7004 5.65131 20.0494C5.18267 19.3984 4.87001 18.5909 4.87001 17.77L4.87002 17.7684L4.87965 13.2504L3.62003 12.4281C1.23669 10.8721 1.23668 7.38798 3.62002 5.83202L9.63801 1.90333C9.63836 1.90311 9.6387 1.90288 9.63904 1.90266C10.3279 1.45017 11.1949 1.24734 12.0213 1.24879C12.8473 1.25023 13.7145 1.45584 14.4036 1.91437ZM6.37757 14.2282L6.37001 17.77C6.37001 17.7703 6.37001 17.7698 6.37001 17.77C6.37021 18.219 6.54754 18.7269 6.86872 19.1731C7.18998 19.6194 7.61368 19.9472 8.03652 20.0883M8.03652 20.0883L11.2233 21.1472C11.2238 21.1474 11.2243 21.1476 11.2247 21.1477C11.4002 21.2049 11.6797 21.245 11.9963 21.245C12.3113 21.245 12.5944 21.2053 12.7775 21.147L15.9628 20.0885C16.3857 19.9474 16.81 19.6194 17.1313 19.1731C17.4527 18.7267 17.63 18.2192 17.63 17.77V14.2389L14.402 16.3567C14.4019 16.3568 14.4021 16.3567 14.402 16.3567C13.7131 16.8095 12.8458 17.0125 12.02 17.0125C11.1945 17.0125 10.3278 16.8099 9.63902 16.3574C9.63868 16.3572 9.63835 16.357 9.63801 16.3567L6.37757 14.2282M20.6579 8.89077C20.6527 8.92644 20.65 8.96293 20.65 9.00004V9.44882C20.5644 10.1173 20.2039 10.756 19.5686 11.173C19.5686 11.1729 19.5686 11.173 19.5686 11.173L13.5786 15.103C13.1876 15.36 12.6241 15.5125 12.02 15.5125C11.4159 15.5125 10.853 15.3604 10.462 15.1033L4.44001 11.172C4.44002 11.172 4.44001 11.172 4.44001 11.172C2.96336 10.208 2.96335 8.0521 4.44 7.08806C4.44 7.08806 4.44 7.08805 4.44 7.08806L10.46 3.15806L10.462 3.15674C10.853 2.8997 11.4156 2.74773 12.0187 2.74878C12.6218 2.74984 13.1835 2.90375 13.574 3.16407L19.5685 7.09707C19.5685 7.09706 19.5685 7.09709 19.5685 7.09707C20.2259 7.52847 20.589 8.19721 20.6579 8.89077Z" fill="#111322"/>
</svg>
