<svg width="24" height="24" viewBox="0 0 24 24" fill="none" xmlns="http://www.w3.org/2000/svg">
<path fill-rule="evenodd" clip-rule="evenodd" d="M5.75439 2.75C5.35523 2.75 4.75 3.23421 4.75 4.22222V4.85H19.0395V4.22222C19.0395 3.23421 18.4342 2.75 18.0351 2.75H5.75439ZM19.0395 6.35H4.75V19.7778C4.75 20.7658 5.35523 21.25 5.75439 21.25H18.0351C18.4342 21.25 19.0395 20.7658 19.0395 19.7778V6.35ZM3.25 4.22222C3.25 2.75563 4.2157 1.25 5.75439 1.25H18.0351C19.5738 1.25 20.5395 2.75563 20.5395 4.22222V19.7778C20.5395 21.2444 19.5738 22.75 18.0351 22.75H5.75439C4.2157 22.75 3.25 21.2444 3.25 19.7778V4.22222ZM13.25 3.85625C13.25 3.44204 13.5858 3.10625 14 3.10625H14.0493C14.4636 3.10625 14.7993 3.44204 14.7993 3.85625C14.7993 4.27046 14.4636 4.60625 14.0493 4.60625H14C13.5858 4.60625 13.25 4.27046 13.25 3.85625ZM15.8816 3.85625C15.8816 3.44204 16.2174 3.10625 16.6316 3.10625H16.6809C17.0951 3.10625 17.4309 3.44204 17.4309 3.85625C17.4309 4.27046 17.0951 4.60625 16.6809 4.60625H16.6316C16.2174 4.60625 15.8816 4.27046 15.8816 3.85625ZM11.8947 9.95C10.1382 9.95 8.69737 11.3957 8.69737 13.2C8.69737 15.0043 10.1382 16.45 11.8947 16.45C13.6513 16.45 15.0921 15.0043 15.0921 13.2C15.0921 11.3957 13.6513 9.95 11.8947 9.95ZM7.19737 13.2C7.19737 10.586 9.29112 8.45 11.8947 8.45C14.4984 8.45 16.5921 10.586 16.5921 13.2C16.5921 15.814 14.4984 17.95 11.8947 17.95C9.29112 17.95 7.19737 15.814 7.19737 13.2Z" fill="#111322"/>
</svg>
