<svg width="24" height="24" viewBox="0 0 24 24" fill="none" xmlns="http://www.w3.org/2000/svg">
<path fill-rule="evenodd" clip-rule="evenodd" d="M4.88636 5.78947C4.88636 4.37575 6.04748 3.25 7.45455 3.25H16.5455C17.9525 3.25 19.1136 4.37575 19.1136 5.78947V13.0921H22C22.4142 13.0921 22.75 13.4279 22.75 13.8421C22.75 14.2563 22.4142 14.5921 22 14.5921H20.4773V20.25H22C22.4142 20.25 22.75 20.5858 22.75 21C22.75 21.4142 22.4142 21.75 22 21.75H2C1.58579 21.75 1.25 21.4142 1.25 21C1.25 20.5858 1.58579 20.25 2 20.25H2.61364V14.5921H2C1.58579 14.5921 1.25 14.2563 1.25 13.8421C1.25 13.4279 1.58579 13.0921 2 13.0921H4.88636V5.78947ZM4.11364 14.5921V20.25H8.06818V14.5921H4.11364ZM9.56818 14.5921V20.25H13.5227V14.5921H9.56818ZM15.0227 14.5921V20.25H18.9773V14.5921H15.0227ZM17.6136 13.0921H6.38636V5.78947C6.38636 5.2266 6.85331 4.75 7.45455 4.75H16.5455C17.1467 4.75 17.6136 5.2266 17.6136 5.78947V13.0921Z" fill="#111322"/>
</svg>
