<svg width="24" height="24" viewBox="0 0 24 24" fill="none" xmlns="http://www.w3.org/2000/svg">
<path fill-rule="evenodd" clip-rule="evenodd" d="M4.22222 2.75C3.40914 2.75 2.75 3.40914 2.75 4.22222V19.7778C2.75 20.5909 3.40914 21.25 4.22222 21.25H19.7778C20.5909 21.25 21.25 20.5909 21.25 19.7778V4.22222C21.25 3.40914 20.5909 2.75 19.7778 2.75H4.22222ZM1.25 4.22222C1.25 2.58071 2.58071 1.25 4.22222 1.25H19.7778C21.4193 1.25 22.75 2.58071 22.75 4.22222V19.7778C22.75 21.4193 21.4193 22.75 19.7778 22.75H4.22222C2.58071 22.75 1.25 21.4193 1.25 19.7778V4.22222ZM7.99216 4.25C8.40637 4.25 8.74216 4.58579 8.74216 5V5.31237H9.34391C9.39305 5.30224 9.44395 5.29692 9.49609 5.29692C9.54823 5.29692 9.59913 5.30224 9.64827 5.31237H10.9993C11.4136 5.31237 11.7493 5.64816 11.7493 6.06237C11.7493 6.47658 11.4136 6.81237 10.9993 6.81237H10.1985C10.079 7.76884 9.73876 8.65994 9.23104 9.4145C9.75013 9.96175 10.372 10.25 11 10.25C11.4142 10.25 11.75 10.5858 11.75 11C11.75 11.4142 11.4142 11.75 11 11.75C9.92618 11.75 8.97199 11.276 8.2331 10.5384C7.34987 11.2937 6.23297 11.7499 5 11.7499C4.58579 11.7499 4.25 11.4141 4.25 10.9999C4.25 10.5857 4.58579 10.2499 5 10.2499C6.00218 10.2499 6.94225 9.79282 7.63 9.03526C7.67165 8.96591 7.72513 8.90245 7.78985 8.84809C8.23774 8.29047 8.55712 7.59452 8.68466 6.81237H8.00424C8.00022 6.81243 7.9962 6.81246 7.99216 6.81246C7.98813 6.81246 7.9841 6.81243 7.98008 6.81237H5.0144C4.60018 6.81237 4.2644 6.47658 4.2644 6.06237C4.2644 5.64816 4.60018 5.31237 5.0144 5.31237H7.24216V5C7.24216 4.58579 7.57795 4.25 7.99216 4.25ZM18.5303 6.46967C18.8232 6.76256 18.8232 7.23744 18.5303 7.53033L6.53033 19.5303C6.23744 19.8232 5.76256 19.8232 5.46967 19.5303C5.17678 19.2374 5.17678 18.7626 5.46967 18.4697L17.4697 6.46967C17.7626 6.17678 18.2374 6.17678 18.5303 6.46967ZM15.5685 12.37C15.651 12.3217 15.8018 12.25 16 12.25C16.1982 12.25 16.349 12.3217 16.4315 12.37C16.5191 12.4212 16.5876 12.4804 16.6355 12.5263C16.731 12.618 16.8151 12.7263 16.8845 12.8243C17.0269 13.0253 17.1824 13.2909 17.3392 13.5803C17.656 14.1653 18.0237 14.9336 18.3693 15.6875C18.7163 16.4446 19.0469 17.2004 19.2904 17.7659C19.4123 18.0489 19.5126 18.2849 19.5824 18.4502C19.6174 18.5329 19.6448 18.598 19.6634 18.6425L19.6918 18.7103L19.6923 18.7114C19.6923 18.7115 19.6923 18.7115 19 19L19.6923 18.7114C19.8516 19.0938 19.6708 19.533 19.2885 19.6923C18.9061 19.8516 18.467 19.6708 18.3077 19.2885L18.5983 19.1674C18.3077 19.2885 18.3077 19.2885 18.3077 19.2885L18.2802 19.2227C18.262 19.1793 18.2352 19.1155 18.2008 19.0341C18.1606 18.9391 18.1102 18.8202 18.0512 18.6821H13.9488C13.8898 18.8202 13.8394 18.9391 13.7992 19.0341C13.7648 19.1155 13.738 19.1793 13.7198 19.2227L13.6927 19.2876C13.6927 19.2876 13.6923 19.2885 13.3538 19.1474L13.6927 19.2876C13.5334 19.6699 13.0939 19.8516 12.7115 19.6923C12.3292 19.533 12.1484 19.0939 12.3077 18.7115L13 19C12.3077 18.7115 12.3077 18.7116 12.3077 18.7115L12.3366 18.6425C12.3553 18.598 12.3826 18.5329 12.4176 18.4502C12.4874 18.2849 12.5877 18.0489 12.7096 17.7659C12.9531 17.2004 13.2837 16.4446 13.6307 15.6875C13.9763 14.9336 14.344 14.1653 14.6608 13.5803C14.8176 13.2909 14.9731 13.0253 15.1155 12.8243C15.1849 12.7263 15.269 12.618 15.3645 12.5263C15.4124 12.4804 15.4809 12.4212 15.5685 12.37ZM14.602 17.1821H17.398C17.2724 16.8996 17.1402 16.606 17.0057 16.3125C16.6638 15.5664 16.3127 14.8347 16.0202 14.2947C16.0134 14.2822 16.0067 14.2698 16 14.2575C15.9933 14.2698 15.9866 14.2822 15.9798 14.2947C15.6873 14.8347 15.3362 15.5664 14.9943 16.3125C14.8598 16.606 14.7276 16.8996 14.602 17.1821Z" fill="#111322"/>
</svg>
