<svg width="24" height="24" viewBox="0 0 24 24" fill="none" xmlns="http://www.w3.org/2000/svg">
<path d="M21 11.7185C21 11.0727 20.9466 10.4235 20.8326 9.78821H11.6914V13.4464H16.9262C16.7089 14.6262 16.011 15.6699 14.989 16.3331V18.7067H18.112C19.9459 17.0522 21 14.6087 21 11.7185Z" fill="#4285F4"/>
<path d="M11.6912 21C14.305 21 16.5093 20.1588 18.1153 18.7067L14.9923 16.3331C14.1234 16.9125 13.0017 17.2406 11.6948 17.2406C9.16647 17.2406 7.02273 15.5686 6.25355 13.3207H3.03081V15.7676C4.67601 18.9755 8.02694 21 11.6912 21Z" fill="#34A853"/>
<path d="M6.25019 13.3207C5.84424 12.1408 5.84424 10.8633 6.25019 9.68345V7.23654H3.03102C1.65646 9.92082 1.65626 13.0833 3.03081 15.7676L6.25019 13.3207Z" fill="#FBBC04"/>
<path d="M11.6912 5.76002C13.0729 5.73907 14.4083 6.2487 15.409 7.18418L18.1759 4.47199C16.4238 2.85933 14.0985 1.97272 11.6912 2.00064C8.02694 2.00064 4.67622 4.02519 3.03102 7.23654L6.25019 9.68345C7.01581 7.43202 9.16291 5.76002 11.6912 5.76002Z" fill="#EA4335"/>
</svg>
