<svg width="24" height="24" viewBox="0 0 24 24" fill="none" xmlns="http://www.w3.org/2000/svg">
<path fill-rule="evenodd" clip-rule="evenodd" d="M5 3.75C4.30964 3.75 3.75 4.30964 3.75 5V19C3.75 19.6904 4.30964 20.25 5 20.25H19C19.6904 20.25 20.25 19.6904 20.25 19V5C20.25 4.30964 19.6904 3.75 19 3.75H5ZM2.25 5C2.25 3.48122 3.48122 2.25 5 2.25H19C20.5188 2.25 21.75 3.48122 21.75 5V19C21.75 20.5188 20.5188 21.75 19 21.75H5C3.48122 21.75 2.25 20.5188 2.25 19V5ZM6.25 7C6.25 6.0335 7.0335 5.25 8 5.25H13C14.2983 5.25 15.5926 5.77164 16.5651 6.60089C17.5388 7.43126 18.25 8.62584 18.25 10V10.5C18.25 11.8742 17.5388 13.0687 16.5651 13.8991C15.5926 14.7284 14.2983 15.25 13 15.25H11.25V17C11.25 17.7474 10.9111 18.338 10.4077 18.7216C9.92506 19.0893 9.31898 19.25 8.75 19.25C8.18102 19.25 7.57494 19.0893 7.09234 18.7216C6.58889 18.338 6.25 17.7474 6.25 17V7ZM8 6.75C7.86193 6.75 7.75 6.86193 7.75 7V17C7.75 17.2526 7.84861 17.412 8.00141 17.5284C8.17506 17.6607 8.44398 17.75 8.75 17.75C9.05602 17.75 9.32494 17.6607 9.49859 17.5284C9.65139 17.412 9.75 17.2526 9.75 17V13.75H13C13.9109 13.75 14.8665 13.3762 15.5918 12.7577C16.3157 12.1404 16.75 11.335 16.75 10.5V10C16.75 9.16502 16.3157 8.3596 15.5918 7.74225C14.8665 7.12379 13.9109 6.75 13 6.75H8ZM9.75 8.25H13C14.1046 8.25 15 9.14543 15 10.25C15 11.3546 14.1046 12.25 13 12.25H9.75V8.25ZM11.25 9.75V10.75H13C13.2761 10.75 13.5 10.5261 13.5 10.25C13.5 9.97386 13.2761 9.75 13 9.75H11.25Z" fill="#111322"/>
</svg>
