<svg width="103" height="103" viewBox="0 0 103 103" fill="none" xmlns="http://www.w3.org/2000/svg">
<ellipse cx="51.4881" cy="51.5" rx="51.4881" ry="51.5" transform="matrix(1 0 0.000230296 1 0 0)" fill="url(#paint0_angular_100_7650)"/>
<g filter="url(#filter0_d_100_7650)">
<path fill-rule="evenodd" clip-rule="evenodd" d="M29.2561 33.318C28.6432 35.5182 29.2561 61.7116 29.2561 61.7116C24.8697 66.8785 25.8851 73.532 26.9411 76.213L32.9115 74.0195C32.7165 77.3341 33.7238 79.3001 34.2518 79.8688L40.344 77.1879L41.2741 77.1505C42.8891 81.9876 47.4544 85.4743 52.8339 85.4743C58.5442 85.4743 63.337 81.5457 64.6577 76.2435C68.0547 78.756 71.3375 79.7864 72.3892 79.5032V76.213V74.0195C75.3135 75.8718 77.9129 76.2536 78.847 76.213C80.7965 67.9265 77.7098 63.0927 75.9227 61.7116C75.9227 61.7116 76.8 37.705 75.9227 33.318C75.0455 28.9311 70.4208 29.0687 68.4902 30.0278C66.5596 30.9869 60.2047 36.3646 60.2047 36.3646C55.0385 34.5123 48.0609 35.5928 45.2178 36.3646C45.2178 36.3646 40.7827 31.5876 36.2013 30.0278C31.6199 28.468 29.8691 31.1179 29.2561 33.318ZM70.6364 40.2296C69.2171 38.8101 67.1832 38.3365 65.2382 38.7753C67.2685 36.6922 70.446 33.4667 71.9719 34.9929C73.2012 36.2224 73.0273 40.2044 72.1398 43.0832C71.9339 42.021 71.4348 41.0281 70.6364 40.2296ZM41.4697 38.7755C39.5244 38.3363 37.4901 38.8098 36.0705 40.2296C35.2725 41.0277 34.7735 42.0201 34.5675 43.0817C33.6803 40.2029 33.5067 36.2221 34.7358 34.9929C36.2618 33.4667 39.4395 36.6924 41.4697 38.7755ZM63.1962 50.6434C64.3244 50.6434 65.3786 50.7527 66.2747 50.9424C64.8667 50.1071 62.175 49.1858 60.4368 49.1858C58.2783 49.1858 58.3124 50.6065 58.3496 51.5188C59.4145 50.9897 61.1882 50.6434 63.1962 50.6434ZM39.4836 50.9424C40.3797 50.7527 41.434 50.6434 42.5622 50.6434C44.5702 50.6434 46.3438 50.9897 47.4088 51.5188C47.4459 50.6065 47.48 49.1858 45.3216 49.1858C43.5834 49.1858 40.8917 50.1071 39.4836 50.9424ZM52.921 83.1344C55.8611 83.1344 58.3413 78.4572 58.3413 75.124C58.3413 71.7907 55.8611 71.0638 52.921 71.0638C49.9808 71.0638 47.4038 71.7907 47.4038 75.124C47.4038 78.4572 49.9808 83.1344 52.921 83.1344ZM45.5168 56.7297C45.5168 57.9797 44.5039 58.993 43.2543 58.993C42.0048 58.993 40.9918 57.9797 40.9918 56.7297C40.9918 55.4798 42.0048 54.4665 43.2543 54.4665C44.5039 54.4665 45.5168 55.4798 45.5168 56.7297ZM62.4887 58.993C63.7382 58.993 64.7512 57.9797 64.7512 56.7297C64.7512 55.4798 63.7382 54.4665 62.4887 54.4665C61.2392 54.4665 60.2262 55.4798 60.2262 56.7297C60.2262 57.9797 61.2392 58.993 62.4887 58.993Z" fill="white"/>
</g>
<ellipse cx="44.8017" cy="18.0125" rx="1.54441" ry="1.54492" fill="white"/>
<ellipse cx="61.2788" cy="18.0124" rx="1.54441" ry="1.54492" fill="white"/>
<ellipse cx="53.04" cy="10.9217" rx="1.54441" ry="1.54492" fill="white"/>
<path d="M48.9213 21.6172L53.0405 14.4075L57.1598 21.6172L61.794 18.5273L60.7642 26.2519H45.3169L44.2871 18.5273L48.9213 21.6172Z" fill="white"/>
<path d="M60.7641 27.7969H45.3169L45.8318 29.8577H60.2492L60.7641 27.7969Z" fill="white"/>
<defs>
<filter id="filter0_d_100_7650" x="10.7918" y="15.3868" width="83.9139" height="86.4656" filterUnits="userSpaceOnUse" color-interpolation-filters="sRGB">
<feFlood flood-opacity="0" result="BackgroundImageFix"/>
<feColorMatrix in="SourceAlpha" type="matrix" values="0 0 0 0 0 0 0 0 0 0 0 0 0 0 0 0 0 0 127 0" result="hardAlpha"/>
<feOffset dy="1.14266"/>
<feGaussianBlur stdDeviation="7.61775"/>
<feColorMatrix type="matrix" values="0 0 0 0 0 0 0 0 0 0 0 0 0 0 0 0 0 0 0.15 0"/>
<feBlend mode="normal" in2="BackgroundImageFix" result="effect1_dropShadow_100_7650"/>
<feBlend mode="normal" in="SourceGraphic" in2="effect1_dropShadow_100_7650" result="shape"/>
</filter>
<radialGradient id="paint0_angular_100_7650" cx="0" cy="0" r="1" gradientUnits="userSpaceOnUse" gradientTransform="translate(51.4881 56.9471) rotate(90) scale(56.9471 56.934)">
<stop stop-color="#ED77EF"/>
<stop offset="0.130208" stop-color="#778AEF"/>
<stop offset="0.192708" stop-color="#AEE4D5"/>
<stop offset="0.34375" stop-color="#81E8EF"/>
<stop offset="0.677083" stop-color="#8D88EF"/>
<stop offset="0.776042" stop-color="#758AE0"/>
<stop offset="0.859375" stop-color="#A9DFD0"/>
<stop offset="0.953125" stop-color="#EF71F3"/>
</radialGradient>
</defs>
</svg>
