<svg width="24" height="24" viewBox="0 0 24 24" fill="none" xmlns="http://www.w3.org/2000/svg">
<path fill-rule="evenodd" clip-rule="evenodd" d="M2.25 6C2.25 4.48121 3.48122 3.25 5 3.25H19C20.5188 3.25 21.75 4.48122 21.75 6V14.6061C21.75 16.1248 20.5188 17.3561 19 17.3561H14.0357V19.75H15.8571C16.2714 19.75 16.6071 20.0858 16.6071 20.5C16.6071 20.9142 16.2714 21.25 15.8571 21.25H8.14286C7.72864 21.25 7.39286 20.9142 7.39286 20.5C7.39286 20.0858 7.72864 19.75 8.14286 19.75H9.96429V17.3561H5C3.48122 17.3561 2.25 16.1248 2.25 14.6061V6ZM11.4643 17.3561V19.75H12.5357V17.3561H11.4643ZM5 4.75C4.30964 4.75 3.75 5.30964 3.75 6V12.7045H20.25V6C20.25 5.30964 19.6904 4.75 19 4.75H5ZM20.25 14.2045H3.75V14.6061C3.75 15.2964 4.30964 15.8561 5 15.8561H19C19.6904 15.8561 20.25 15.2964 20.25 14.6061V14.2045Z" fill="#111322"/>
</svg>
