<svg width="24" height="24" viewBox="0 0 24 24" fill="none" xmlns="http://www.w3.org/2000/svg">
<path d="M20.6018 17.924C20.2607 18.7275 19.8569 19.4672 19.3891 20.1473C18.7514 21.0743 18.2292 21.716 17.8268 22.0724C17.2031 22.6573 16.5347 22.9569 15.8191 22.9739C15.3053 22.9739 14.6857 22.8248 13.9645 22.5224C13.2409 22.2214 12.5759 22.0724 11.9678 22.0724C11.3301 22.0724 10.6462 22.2214 9.91467 22.5224C9.18202 22.8248 8.5918 22.9824 8.14054 22.998C7.45425 23.0278 6.77019 22.7198 6.08738 22.0724C5.65158 21.6848 5.10647 21.0204 4.45346 20.0791C3.75283 19.0739 3.17681 17.9084 2.72555 16.5795C2.24227 15.1442 2 13.7543 2 12.4087C2 10.8673 2.32665 9.5379 2.98091 8.42385C3.4951 7.52901 4.17917 6.82313 5.03532 6.30493C5.89148 5.78674 6.81655 5.52268 7.81278 5.50578C8.35789 5.50578 9.07272 5.67771 9.96104 6.0156C10.8468 6.35463 11.4156 6.52655 11.665 6.52655C11.8514 6.52655 12.4833 6.32552 13.5544 5.92474C14.5673 5.55306 15.4222 5.39916 16.1226 5.45978C18.0204 5.61595 19.4461 6.37876 20.3943 7.75304C18.6971 8.80164 17.8575 10.2703 17.8742 12.1544C17.8895 13.622 18.4116 14.8432 19.4378 15.8129C19.9028 16.2629 20.4222 16.6108 21 16.8578C20.8747 17.2283 20.7424 17.5833 20.6018 17.924V17.924ZM16.2493 0.460131C16.2493 1.61039 15.8372 2.68439 15.0157 3.67847C14.0243 4.86024 12.8252 5.54312 11.5249 5.43536C11.5084 5.29737 11.4987 5.15213 11.4987 4.99951C11.4987 3.89526 11.9702 2.71349 12.8074 1.74724C13.2254 1.25801 13.757 0.851218 14.4017 0.526715C15.0449 0.207053 15.6534 0.0302728 16.2256 0C16.2423 0.153772 16.2493 0.307554 16.2493 0.460116V0.460131Z" fill="black"/>
</svg>
