<svg width="24" height="24" viewBox="0 0 24 24" fill="none" xmlns="http://www.w3.org/2000/svg">
<path fill-rule="evenodd" clip-rule="evenodd" d="M9.92882 1.24991C9.95338 1.24998 9.97713 1.25005 10 1.25005H14C14.0229 1.25005 14.0466 1.24998 14.0712 1.24991C14.5142 1.24865 15.222 1.24664 15.791 1.62601C16.3265 1.98298 16.6111 2.56195 16.7096 3.32347C18.1504 3.47476 19.3992 3.88156 20.2993 4.85448C21.3278 5.96625 21.75 7.65476 21.75 10V16C21.75 18.0133 21.5113 19.7689 20.4394 20.9939C19.3459 22.2437 17.5647 22.75 15 22.75H9C6.43533 22.75 4.65413 22.2437 3.56057 20.9939C2.48868 19.7689 2.25 18.0133 2.25 16V10C2.25 7.65926 2.6724 5.97133 3.70035 4.85861C4.60012 3.88465 5.84867 3.4755 7.29036 3.3236C7.38884 2.56201 7.67349 1.983 8.20897 1.62601C8.77803 1.24664 9.48584 1.24865 9.92882 1.24991ZM7.31325 4.83048C6.12269 4.97295 5.33207 5.30285 4.80215 5.87648C4.1626 6.56876 3.75 7.78083 3.75 10V16C3.75 17.9868 4.01132 19.2312 4.68943 20.0062C5.34587 20.7564 6.56467 21.25 9 21.25H15C17.4353 21.25 18.6541 20.7564 19.3106 20.0062C19.9887 19.2312 20.25 17.9868 20.25 16V10C20.25 7.77533 19.8372 6.56384 19.1982 5.87311C18.6723 5.30467 17.8895 4.97699 16.7122 4.83337C16.6683 5.1517 16.5743 5.49071 16.374 5.79107C15.9178 6.47538 15.099 6.75005 14 6.75005H10C9.97713 6.75005 9.95338 6.75011 9.92882 6.75018C9.48584 6.75144 8.77803 6.75345 8.20897 6.37408C7.71019 6.04156 7.42903 5.5164 7.31325 4.83048ZM15.25 4.01622C15.25 4.01868 15.25 4.02113 15.25 4.02359C15.2493 4.57165 15.2242 4.81172 15.126 4.95902C15.0822 5.02471 14.901 5.25005 14 5.25005H10C9.43524 5.25005 9.19042 5.2256 9.04103 5.12601C8.97533 5.08221 8.75 4.901 8.75 4.00005C8.75 3.09909 8.97533 2.91788 9.04103 2.87408C9.19042 2.77449 9.43524 2.75005 10 2.75005H14C14.5648 2.75005 14.8096 2.77449 14.959 2.87408C15.0247 2.91788 15.25 3.09909 15.25 4.00005C15.25 4.00547 15.25 4.01086 15.25 4.01622ZM7.25 12.2C7.25 11.7858 7.58579 11.45 8 11.45H15C15.4142 11.45 15.75 11.7858 15.75 12.2C15.75 12.6143 15.4142 12.95 15 12.95H8C7.58579 12.95 7.25 12.6143 7.25 12.2ZM7.25 16.2C7.25 15.7858 7.58579 15.45 8 15.45H12.38C12.7942 15.45 13.13 15.7858 13.13 16.2C13.13 16.6143 12.7942 16.95 12.38 16.95H8C7.58579 16.95 7.25 16.6143 7.25 16.2Z" fill="#111322"/>
</svg>
