<svg width="112" height="110" viewBox="0 0 112 110" fill="none" xmlns="http://www.w3.org/2000/svg">
<path d="M1 95.9355C1 95.9355 1 103.125 6.96598 103.125H92.2795C92.2795 103.125 97.0523 103.125 98.2455 95.9355C99.4387 88.7459 110.774 50.7312 110.774 50.7312C110.774 50.7312 113.16 40.6659 102.422 40.6659H97.0523H21.8809C17.7048 40.6659 16.5116 47.1365 16.5116 47.1365L1 95.9355Z" fill="#C7D7FE"/>
<path d="M1 20.5351V95.9355L16.5116 47.1365C16.5116 47.1365 17.7048 40.6659 21.8809 40.6659H97.0523V33.4763C97.0523 33.4763 97.0523 27.7247 92.2795 27.7247H45.1483C39.1823 27.7247 42.1653 14.7835 35.6027 14.7835H6.96598C1 14.7835 1 20.5351 1 20.5351Z" fill="#A4BCFD"/>
<path d="M1 95.9355V20.5351C1 20.5351 1 14.7835 6.96598 14.7835M1 95.9355C1 95.9355 1 103.125 6.96598 103.125M1 95.9355L16.5116 47.1365C16.5116 47.1365 17.7048 40.6659 21.8809 40.6659M6.96598 103.125C12.932 103.125 92.2795 103.125 92.2795 103.125M6.96598 103.125H92.2795M92.2795 103.125C92.2795 103.125 97.0523 103.125 98.2455 95.9355C99.4387 88.7459 110.774 50.7312 110.774 50.7312C110.774 50.7312 113.16 40.6659 102.422 40.6659M102.422 40.6659C91.6829 40.6659 97.0523 40.6659 97.0523 40.6659M102.422 40.6659H97.0523M97.0523 40.6659V33.4763C97.0523 33.4763 97.0523 27.7247 92.2795 27.7247M97.0523 40.6659C97.0523 40.6659 26.0571 40.6659 21.8809 40.6659M97.0523 40.6659H21.8809M92.2795 27.7247C87.5067 27.7247 51.1142 27.7247 45.1483 27.7247M92.2795 27.7247H45.1483M45.1483 27.7247C39.1823 27.7247 42.1653 14.7835 35.6027 14.7835M35.6027 14.7835C29.0401 14.7835 12.932 14.7835 6.96598 14.7835M35.6027 14.7835H6.96598" stroke="#6172F3" stroke-width="2"/>
<path d="M29.6367 12.2123V37.4432V39.9469H88.1033V12.2123C88.1033 6.875 83.6908 6.875 83.6908 6.875H34.6126C34.6126 6.875 29.6367 6.875 29.6367 12.2123Z" fill="#EEF4FF"/>
<path d="M38.5857 28.4436H80.3476M38.5857 18.3783H80.3476M29.6367 37.4432C29.6367 37.4432 29.6367 17.5496 29.6367 12.2123C29.6367 6.875 34.6126 6.875 34.6126 6.875H83.6908C83.6908 6.875 88.1033 6.875 88.1033 12.2123C88.1033 17.5496 88.1033 39.9469 88.1033 39.9469H29.6367V37.4432Z" stroke="#6172F3" stroke-width="2" stroke-linecap="round"/>
</svg>
