<svg width="24" height="24" viewBox="0 0 24 24" fill="none" xmlns="http://www.w3.org/2000/svg">
<path d="M0 6.4C0 2.86538 2.86538 0 6.4 0H17.6C21.1346 0 24 2.86538 24 6.4V17.6C24 21.1346 21.1346 24 17.6 24H6.4C2.86538 24 0 21.1346 0 17.6V6.4Z" fill="url(#paint0_linear_321_3400)"/>
<path d="M4.37078 3.03906C3.30842 3.03906 2.44388 3.91311 2.44388 4.98771C2.44388 6.5146 4.18966 8.09115 4.26395 8.15736C4.29456 8.18466 4.33267 8.1982 4.37078 8.1982C4.40889 8.1982 4.447 8.18466 4.47762 8.15757C4.55191 8.09115 6.29769 6.5146 6.29769 4.98771C6.29769 3.91311 5.43315 3.03906 4.37078 3.03906ZM4.37078 6.04856C3.78051 6.04856 3.30028 5.56639 3.30028 4.97374C3.30028 4.38108 3.78051 3.89892 4.37078 3.89892C4.96106 3.89892 5.44129 4.38108 5.44129 4.97374C5.44129 5.56639 4.96106 6.04856 4.37078 6.04856Z" fill="#FEFEFF"/>
<path fill-rule="evenodd" clip-rule="evenodd" d="M6.56916 8.15915C6.45777 8.55893 6.51218 12.2032 6.5473 14.0414C6.56024 14.7188 6.27988 15.3597 6.02916 15.9892C5.73422 16.7296 5.74346 17.4882 5.84448 18.0487C5.90426 18.3804 6.25649 18.5395 6.57286 18.4232C6.99243 18.2691 7.42848 18.6055 7.5513 19.0352C7.55817 19.0593 7.56527 19.0825 7.57255 19.1049C7.6605 19.3757 7.96375 19.448 8.22432 19.3333L9.23483 18.8887C9.26249 18.8765 9.29219 18.8697 9.32239 18.8684C9.42976 18.8641 9.52614 18.9318 9.56637 19.0314C10.0071 20.1231 11.0768 20.8935 12.3264 20.8935C13.2303 20.8935 14.0401 20.4904 14.5857 19.8542C15.0134 19.3555 16.0391 19.2228 16.6734 19.3939C17.0759 19.5024 17.1018 19.1459 17.1018 18.7291V18.6323C17.1018 18.4 17.3609 18.2556 17.5721 18.3523C17.8004 18.4567 18.0104 18.5252 18.1886 18.5684C18.4736 18.6375 18.7294 18.4349 18.7728 18.1449C18.8774 17.447 18.8307 16.8649 18.7116 16.3986C18.4738 15.4681 17.986 14.5239 18.0114 13.5638C18.0593 11.7493 18.1082 8.87736 17.9646 8.15915C17.7504 7.08804 16.6211 7.12164 16.1497 7.35582C16.014 7.42318 15.789 7.57983 15.5372 7.76882C14.6413 8.44132 13.2503 8.61207 12.1311 8.66054C10.9659 8.711 9.99808 8.3116 8.99996 7.70819C8.76465 7.56593 8.51577 7.44115 8.26509 7.35582C7.14637 6.97498 6.71884 7.62196 6.56916 8.15915ZM16.6737 9.8464C16.3764 9.54902 16.0621 8.76292 16.4349 8.56826C16.6567 8.45249 16.8576 8.42571 16.9998 8.56792C17.1967 8.76481 17.2462 9.25079 17.1958 9.76026C17.1753 9.96747 16.821 9.99363 16.6737 9.8464ZM8.47192 8.56822C8.84473 8.76285 8.53049 9.54902 8.23311 9.8464C8.0859 9.99361 7.73164 9.96744 7.71114 9.76026C7.66074 9.25078 7.71023 8.76481 7.90711 8.56792C8.04931 8.42572 8.25024 8.45248 8.47192 8.56822ZM14.8568 12.3893C14.998 12.3893 15.0483 12.2092 14.9134 12.1674C14.657 12.0878 14.392 12.0334 14.1832 12.0334C13.7598 12.0334 14.1244 12.4328 14.5466 12.4008C14.6465 12.3933 14.7503 12.3893 14.8568 12.3893ZM9.76178 12.1674C9.62692 12.2092 9.67722 12.3893 9.81843 12.3893C9.92491 12.3893 10.0287 12.3933 10.1286 12.4008C10.5508 12.4328 10.9154 12.0334 10.492 12.0334C10.2833 12.0334 10.0182 12.0878 9.76178 12.1674ZM12.3476 20.3222C13.0656 20.3222 13.6712 19.1802 13.6712 18.3663C13.6712 17.5525 13.0656 17.375 12.3476 17.375C11.6297 17.375 11.0004 17.5525 11.0004 18.3663C11.0004 19.1802 11.6297 20.3222 12.3476 20.3222ZM10.5399 13.8753C10.5399 14.1805 10.2925 14.4279 9.98734 14.4279C9.68216 14.4279 9.43476 14.1805 9.43476 13.8753C9.43476 13.5701 9.68216 13.3227 9.98734 13.3227C10.2925 13.3227 10.5399 13.5701 10.5399 13.8753ZM14.6843 14.4279C14.9895 14.4279 15.2369 14.1805 15.2369 13.8753C15.2369 13.5701 14.9895 13.3227 14.6843 13.3227C14.3791 13.3227 14.1317 13.5701 14.1317 13.8753C14.1317 14.1805 14.3791 14.4279 14.6843 14.4279Z" fill="#FEFEFF"/>
<defs>
<linearGradient id="paint0_linear_321_3400" x1="0" y1="0" x2="24" y2="24" gradientUnits="userSpaceOnUse">
<stop stop-color="#B140C9"/>
<stop offset="1" stop-color="#514FE9"/>
</linearGradient>
</defs>
</svg>
