<svg width="24" height="24" viewBox="0 0 24 24" fill="none" xmlns="http://www.w3.org/2000/svg">
<path fill-rule="evenodd" clip-rule="evenodd" d="M9.6356 7.33947C9.74482 7.03195 9.80358 6.69585 9.80358 6.32138C9.80358 5.86724 9.71212 5.37424 9.50294 4.83385C9.31769 4.35528 9.03833 3.9413 8.65191 3.58002C8.35239 3.29998 8.09153 3.21423 7.82143 3.21423C7.62837 3.21423 7.51756 3.26387 7.41014 3.35908C7.19997 3.54537 7.06666 3.74729 6.98494 3.97739C6.87573 4.28491 6.81697 4.62101 6.81697 4.99548C6.81697 5.43853 6.90754 5.93014 7.11877 6.47934C7.30345 6.95949 7.58311 7.37308 7.97089 7.73272C8.28091 8.02023 8.54256 8.10263 8.79911 8.10263C8.99218 8.10263 9.10299 8.05299 9.2104 7.95778C9.42058 7.77149 9.55389 7.56957 9.6356 7.33947ZM11.2425 7.08761C11.2001 7.34645 11.1357 7.59773 11.0491 7.84147C10.8795 8.31914 10.5982 8.73209 10.2054 9.08031C9.8125 9.42852 9.34375 9.60263 8.79911 9.60263C8.12054 9.60263 7.50447 9.34593 6.9509 8.83254C6.39733 8.31914 5.98661 7.71423 5.71875 7.01781C5.4509 6.32138 5.31697 5.64727 5.31697 4.99548C5.31697 4.45977 5.40179 3.95307 5.57143 3.47539C5.74108 2.99772 6.02233 2.58477 6.41518 2.23655C6.80804 1.88834 7.27679 1.71423 7.82143 1.71423C8.50893 1.71423 9.12724 1.97093 9.67634 2.48432C10.2255 2.99772 10.6339 3.60039 10.9018 4.29236C11.0657 4.71585 11.1795 5.13348 11.2431 5.54527C11.2834 5.80632 11.3036 6.06503 11.3036 6.32138C11.3036 6.58375 11.2832 6.83916 11.2425 7.08761ZM12.7569 5.54527C12.7166 5.80633 12.6964 6.06503 12.6964 6.32138C12.6964 6.58375 12.7168 6.83916 12.7575 7.08761C12.7999 7.34645 12.8643 7.59773 12.9509 7.84147C13.1205 8.31914 13.4018 8.73209 13.7946 9.08031C14.1875 9.42852 14.6563 9.60263 15.2009 9.60263C15.8795 9.60263 16.4955 9.34593 17.0491 8.83254C17.6027 8.31914 18.0134 7.71423 18.2813 7.01781C18.5491 6.32138 18.683 5.64727 18.683 4.99548C18.683 4.45977 18.5982 3.95307 18.4286 3.47539C18.2589 2.99772 17.9777 2.58477 17.5848 2.23655C17.192 1.88834 16.7232 1.71423 16.1786 1.71423C15.4911 1.71423 14.8728 1.97093 14.3237 2.48432C13.7746 2.99772 13.3661 3.60039 13.0982 4.29236C12.9343 4.71585 12.8205 5.13349 12.7569 5.54527ZM6.68719 13.3144C6.71121 13.1457 6.72322 12.9709 6.72322 12.7901C6.72322 12.1294 6.56697 11.4486 6.25447 10.7477C5.94197 10.0468 5.49331 9.44861 4.90849 8.95307C4.32367 8.45754 3.69197 8.20977 3.0134 8.20977C2.3259 8.20977 1.79465 8.47539 1.41965 9.00664C1.04465 9.53789 0.857147 10.1607 0.857147 10.8749C0.857147 11.5357 1.0134 12.2142 1.3259 12.9107C1.6384 13.6071 2.08706 14.2031 2.67188 14.6986C3.2567 15.1941 3.8884 15.4419 4.56697 15.4419C4.62041 15.4419 4.67291 15.4403 4.72447 15.4371C5.33612 15.3994 5.81487 15.1376 6.16072 14.6517C6.18785 14.6136 6.21399 14.575 6.23916 14.5359C6.47383 14.1714 6.62317 13.7643 6.68719 13.3144ZM15.9576 14.1431C15.7814 14.0026 15.6006 13.8663 15.4152 13.7343C14.192 12.8638 13.0536 12.4285 12 12.4285C11.2054 12.4285 10.3438 12.6919 9.41518 13.2187C8.93323 13.4921 8.47593 13.7992 8.04329 14.14C7.64236 14.4557 7.26261 14.8004 6.90402 15.1741C6.90273 15.1754 6.90143 15.1768 6.90014 15.1781C6.4153 15.6837 5.98245 16.2243 5.60157 16.7999C5.39812 17.1074 5.20951 17.4248 5.03572 17.7522C4.53572 18.6941 4.28572 19.5491 4.28572 20.3169C4.28572 21.6205 5.10268 22.2723 6.73661 22.2723C7.39733 22.2723 8.29242 22.0736 9.42188 21.6763C10.5513 21.279 11.4107 21.0803 12 21.0803C12.5625 21.0803 13.3772 21.2812 14.4442 21.683C15.5112 22.0848 16.3482 22.2857 16.9554 22.2857C17.3393 22.2857 17.6786 22.2611 17.9732 22.212C18.2679 22.1629 18.5558 22.0736 18.8371 21.9441C19.1183 21.8147 19.3348 21.6138 19.4866 21.3415C19.6384 21.0691 19.7143 20.7276 19.7143 20.3169C19.7143 19.2901 19.3036 18.154 18.4821 16.9084C18.4591 16.8734 18.4359 16.8386 18.4125 16.8039C18.0191 16.2206 17.581 15.6791 17.098 15.1794C16.7422 14.8113 16.3621 14.4659 15.9576 14.1431ZM17.3136 13.3202C17.3851 13.8159 17.5603 14.2598 17.8393 14.6517C18.1863 15.1392 18.6672 15.4012 19.2818 15.4375C19.3313 15.4404 19.3818 15.4419 19.433 15.4419C20.1116 15.4419 20.7433 15.1941 21.3281 14.6986C21.913 14.2031 22.3616 13.6071 22.6741 12.9107C22.9866 12.2142 23.1429 11.5357 23.1429 10.8749C23.1429 10.1607 22.9554 9.53789 22.5804 9.00664C22.2054 8.47539 21.6741 8.20977 20.9866 8.20977C20.308 8.20977 19.6763 8.45754 19.0915 8.95307C18.5067 9.44861 18.058 10.0468 17.7455 10.7477C17.433 11.4486 17.2768 12.1294 17.2768 12.7901C17.2768 12.9729 17.2891 13.1496 17.3136 13.3202ZM4.93872 13.7818C5.11403 13.5356 5.22322 13.2268 5.22322 12.7901C5.22322 12.3712 5.125 11.898 4.88447 11.3585C4.66356 10.8631 4.35162 10.4473 3.93879 10.0975C3.58755 9.79987 3.29075 9.70977 3.0134 9.70977C2.86582 9.70977 2.79698 9.73721 2.77016 9.75063C2.7464 9.7625 2.70371 9.78864 2.6451 9.87167C2.46633 10.1249 2.35715 10.4385 2.35715 10.8749C2.35715 11.2936 2.45521 11.7635 2.69444 12.2966C2.91485 12.7878 3.22688 13.2028 3.64158 13.5542C3.99282 13.8518 4.28962 13.9419 4.56697 13.9419C4.80528 13.9419 4.86544 13.8848 4.93872 13.7818ZM14.5454 14.9564C13.4722 14.1926 12.6347 13.9285 12 13.9285C11.5389 13.9285 10.9329 14.0823 10.1553 14.5234C9.35414 14.9779 8.63209 15.5398 7.98623 16.2127C7.33578 16.8904 6.795 17.6372 6.36064 18.4555C5.93329 19.2605 5.78572 19.8709 5.78572 20.3169C5.78572 20.4887 5.8128 20.5698 5.82295 20.5941C5.82826 20.6068 5.82935 20.6076 5.83211 20.6095C5.83263 20.6099 5.83323 20.6103 5.83392 20.6109C5.86357 20.6345 6.07919 20.7723 6.73661 20.7723C7.14228 20.7723 7.8467 20.6403 8.92411 20.2613C10.0836 19.8534 11.1435 19.5803 12 19.5803C12.8471 19.5803 13.874 19.8654 14.9728 20.2792C15.9924 20.6631 16.6243 20.7857 16.9554 20.7857C17.2787 20.7857 17.5326 20.7647 17.7266 20.7324C17.8763 20.7075 18.0277 20.6626 18.1828 20.5938C18.1939 20.5598 18.2143 20.476 18.2143 20.3169C18.2143 19.6886 17.9592 18.8401 17.2299 17.7343C16.5111 16.6443 15.6188 15.7203 14.5454 14.9564ZM14.7896 7.95778C14.897 8.05299 15.0078 8.10263 15.2009 8.10263C15.4574 8.10263 15.7191 8.02023 16.0291 7.73272C16.4169 7.37308 16.6966 6.95949 16.8812 6.47934C17.0925 5.93014 17.183 5.43853 17.183 4.99548C17.183 4.62101 17.1243 4.28491 17.0151 3.97739C16.9334 3.74729 16.8 3.54537 16.5899 3.35908C16.4825 3.26387 16.3716 3.21423 16.1786 3.21423C15.9085 3.21423 15.6476 3.29998 15.3481 3.58002C14.9617 3.9413 14.6823 4.35528 14.4971 4.83385C14.2879 5.37424 14.1964 5.86724 14.1964 6.32138C14.1964 6.69585 14.2552 7.03195 14.3644 7.33947C14.4461 7.56957 14.5794 7.77149 14.7896 7.95778ZM21.2299 9.75063C21.203 9.73721 21.1342 9.70977 20.9866 9.70977C20.7093 9.70977 20.4125 9.79987 20.0612 10.0975C19.6484 10.4473 19.3365 10.8631 19.1155 11.3585C18.875 11.898 18.7768 12.3712 18.7768 12.7901C18.7768 13.2268 18.886 13.5356 19.0613 13.7818C19.1346 13.8848 19.1947 13.9419 19.433 13.9419C19.7104 13.9419 20.0072 13.8518 20.3584 13.5542C20.7731 13.2028 21.0852 12.7878 21.3056 12.2966C21.5448 11.7635 21.6429 11.2936 21.6429 10.8749C21.6429 10.4385 21.5337 10.1249 21.3549 9.87167C21.2963 9.78864 21.2536 9.7625 21.2299 9.75063Z" fill="#111322"/>
</svg>
