<svg width="24" height="24" viewBox="0 0 24 24" fill="none" xmlns="http://www.w3.org/2000/svg">
<path fill-rule="evenodd" clip-rule="evenodd" d="M2.29289 10.0355C7.6736 4.65482 16.3975 4.65482 21.7782 10.0355C22.1687 10.4261 22.1687 11.0592 21.7782 11.4497C21.3876 11.8403 20.7545 11.8403 20.364 11.4497C15.7643 6.85008 8.30677 6.85008 3.70711 11.4497C3.31658 11.8403 2.68342 11.8403 2.29289 11.4497C1.90237 11.0592 1.90237 10.4261 2.29289 10.0355ZM5.90711 13.6497C9.29174 10.2651 14.7793 10.2651 18.164 13.6497C18.5545 14.0403 18.5545 14.6734 18.164 15.064C17.7734 15.4545 17.1403 15.4545 16.7497 15.064C14.1462 12.4604 9.92491 12.4604 7.32132 15.064C6.9308 15.4545 6.29763 15.4545 5.90711 15.064C5.51658 14.6734 5.51658 14.0403 5.90711 13.6497ZM9.52132 17.264C10.9099 15.8754 13.1612 15.8754 14.5497 17.264C14.9403 17.6545 14.9403 18.2877 14.5497 18.6782C14.1592 19.0687 13.5261 19.0687 13.1355 18.6782C12.528 18.0707 11.543 18.0707 10.9355 18.6782C10.545 19.0687 9.91184 19.0687 9.52132 18.6782C9.1308 18.2877 9.1308 17.6545 9.52132 17.264Z" fill="#111322"/>
</svg>
